<?xml version="1.0" encoding="iso-8859-1"?>
<!-- Generator: Adobe Illustrator 11.0, SVG Export Plug-In  -->
<!DOCTYPE svg PUBLIC "-//W3C//DTD SVG 1.0//EN"    "http://www.w3.org/TR/2001/REC-SVG-20010904/DTD/svg10.dtd" [
	<!ENTITY ns_flows "http://ns.adobe.com/Flows/1.0/">
	<!ENTITY ns_svg "http://www.w3.org/2000/svg">
	<!ENTITY ns_xlink "http://www.w3.org/1999/xlink">
]>
<svg  xmlns="&ns_svg;" xmlns:xlink="&ns_xlink;" xmlns:a="http://ns.adobe.com/AdobeSVGViewerExtensions/3.0/"
	 width="126" height="110" viewBox="-0.5488281 -0.387207 126 110" xml:space="preserve">
	<defs>
	</defs>
	<g>
		<path style="fill:#569547;" d="M122.9208984,33.7333984c8.4316406,29.4448242-11.8359375,63.0620117-45.25,72.6362305
			c-33.4052734,9.5791016-67.3208008-5.3183594-75.7641602-34.7441406
			C-6.5136719,42.2045898,13.7441406,13.0141602,47.1586914,3.4492188
			C80.5810547-6.1298828,114.5009766,4.331543,122.9208984,33.7333984z"/>
		<path style="fill:#FFFFFF;" d="M120.6738281,34.5361328C112.5644531,6.21875,79.9140625-3.8354492,47.7617188,5.3725586
			C15.6030273,14.5810547-3.8959961,42.6860352,4.222168,70.9926758
			c8.0942383,28.3310547,40.7402344,42.6494141,72.902832,33.4277344
			C109.2900391,95.2075195,128.7841797,62.8491211,120.6738281,34.5361328z M71.9228516,93.7172852
			c-8.3789063,1.6484375-16.6030273,1.6181641-24.2099609,0.2099609
			c-2.4433594-7.1972656-4.9970703-23.4042969,12.1704102-40.6831055l-7.1318359,0.3178711
			C40.5771484,65.527832,38.8515625,82.043457,41.3212891,92.4067383
			C25.8911133,87.6606445,14.105957,76.5913086,11.0688477,61.144043
			c-4.8681641-24.6977539,12.5615234-47.7680664,41.300293-53.434082
			c28.7529297-5.6416016,57.1650391,3.2006836,62.0302734,27.9169922
			C119.2529297,60.3256836,100.6669922,88.0512695,71.9228516,93.7172852z"/>
		<path style="fill:#C0D1A9;" d="M62.6455078,51.1948242c-6.0415039,7.0214844-10.8359375,16.0292969-10.8359375,16.0292969
			s-1.6796875-8.5507813,6.078125-18.7021484"/>
		<path style="fill:#7CA458;" d="M59.3725586,55.8789063c-0.8666992,1.4799805-6.6914063,9.4399414-6.6914063,9.4399414
			s0.6743164-4.9765625,4.0078125-9.8637695"/>
		<path style="fill:#9FB97D;" d="M57.3901367,51.065918c-7.4814453,7.3085938-9.5522461,16.2744141-9.5522461,16.2744141
			S51.534668,61.8686523,63.7651367,54.6875"/>
		<path style="fill:#C0D1A9;" d="M54.2670898,55.331543c-1.7827148,2.2041016-4.6743164,8.7646484-4.6743164,8.7646484
			s4.2602539-4.9228516,7.1230469-7.5644531"/>
		<path style="fill:#7CA458;" d="M57.949707,49.7949219c-7.4858398,7.3012695-15.3974609,9.0493164-15.3974609,9.0493164
			s9.5366211,1.7285156,21.7646484-5.4355469"/>
		<path style="fill:#9FB97D;" d="M55.6484375,54.5356445c-7.4116211,3.7636719-10.5922852,3.75-10.5922852,3.75
			s4.8959961-2.5810547,8.6025391-5.5756836"/>
		<path style="fill:#7CA458;" d="M55.5146484,53.8349609c-5.215332,5.9936523-10.6499023,7.996582-10.6499023,7.996582
			s4.8203125,0.9345703,9.6875-4.59375"/>
		<path style="fill:#FFE940;" d="M94.1542969,66.300293c-0.2255859-1.984375-3.1230469-2.1738281-4.2050781-3.7216797
			c-1.0869141-1.5429688,6.1113281,1.2861328,5.9208984-0.5820313c-0.1923828-1.8681641-4.0263672-2.3916016-5.8349609-3.59375
			c-1.7910156-1.2265625,2.6484375,0.2460938,3.2373047-1.7011719c0.5839844-1.9423828-2.6201172-1.5751953-3.8222656-2.5693359
			c-1.2001953-0.9907227,2.34375-0.1333008,4.4628906-1.3139648c2.1240234-1.1791992-6.9697266-1.5566406-8.5283203-1.921875
			c-1.5576172-0.3535156,1.2529297-0.9501953,3.5605469-2.6474609c2.2988281-1.7050781,0.28125-1.5947266-1.7626953-1.0839844
			c-2.0478516,0.4990234-1.7802734-0.7001953-2.8330078-2.8603516c-1.0712891-2.1459961-1.8193359-2.2524414-3.4804688-2.9941406
			c-1.6513672-0.7373047-1.6064453-0.8164063-2.2871094-2.0029297c-0.6582031-1.2045898-1.9326172-2.9692383-2.9902344-3.4619141
			c-1.0615234-0.5058594-1.96875-1.84375-2.5498047-2.9980469c-0.6015625-1.159668-1.1464844-1.4697266-3.2441406-2.8544922
			c0,0-1.2529297,0-1.5322266-0.9760742c-0.2744141-0.9799805-1.5039063-0.4389648-1.7646484,0.0361328
			c-0.2783203,0.4624023-2.722168-0.5048828-3.1040039-2.3857422c-0.390625-1.8652344-1.8876953-1.7836914-2.9047852-1.6376953
			c-0.4443359,0.0620117-1.0039063,0.8339844-1.5693359,1.7348633c-0.7426758-1.3813477-1.4970703-2.7016602-1.527832-1.1748047
			c-0.0268555,1.1020508,0.4082031,1.8925781,0.7421875,2.4526367c-0.4443359,0.71875-0.8579102,1.3632813-1.2041016,1.6855469
			c-0.2675781-0.4257813-0.574707-0.902832-0.8583984-1.3081055c-0.6757813-0.9487305,0.6757813-3.0854492-0.1547852-3.925293
			c-0.8256836-0.8398438-4.4921875-1.3505859-3.1069336-0.5356445c0.7514648,0.4262695,0.9824219,2.4008789,1.0859375,4.4677734
			c-0.6230469-0.7373047-1.378418-1.6801758-2.4257813-3.0073242c-4.800293-6.125-11.347168-1.8647461-8.8007813-2.6992188
			c2.5395508-0.840332,8.3564453,4.6225586,9.190918,7.1606445c0.8398438,2.5375977-1.5102539-0.6455078-4.2260742-2.8115234
			c-2.1489258-1.6982422-6.8266602-2.3549805-7.2768555-1.8261719l-0.1240234-0.1337891
			c-1.9814453-0.8793945-4.4467773-3.8759766-6.1376953-3.0556641c-1.6860352,0.8222656,4.5097656,5.4467773,2.628418,5.331543
			c-1.8925781-0.1088867-3.5693359-2.4643555-5.3803711-1.6064453c-1.8193359,0.8579102-4.6005859-0.0556641-4.7275391,0.3710938
			c-0.1401367,0.456543,1.0551758,0.9194336,2.3666992,1.5395508c1.3208008,0.6035156,2.8330078,1.3330078,0.6391602,0.8496094
			c-2.1904297-0.4833984-3.8828125,0.5322266-3.9926758,1.3110352c-0.1098633,0.7607422,5.3920898-1.6191406,9.7324219,1.8813477
			c4.3388672,3.5107422-6.2236328-2.3256836-9.5068359-0.4389648c-3.2924805,1.9057617,1.6186523,0.2929688,6.3144531,2.9633789
			c4.6918945,2.6787109-7.9213867-0.7573242-8.9433594,2.5810547c-1.0166016,3.3588867-1.043457,0.5058594,1.2475586,1.5585938
			c2.309082,1.0532227-2.4770508,1.0581055-0.7270508,1.8076172c1.7431641,0.7543945,10.9023438-2.1547852,15.5458984-0.328125
			c4.6411133,1.8251953-7.2050781,0.4443359-7.8999023,1.6967773c-0.684082,1.2714844-2.7563477,2.7993164,0.1005859,3.03125
			c2.8393555,0.230957,2.7055664-0.4194336,7.2456055-0.0942383c4.5395508,0.3408203-0.3134766,0.9956055-0.2553711,1.84375
			c0.0488281,0.8544922,1.8530273,0.2641602,5.1367188-0.4838867c0.4868164-0.1157227,0.8339844-0.1518555,1.1079102-0.1586914
			c-2.0244141,1.5712891-5.2231445,3.0195313-6.0009766,4.0161133c-0.5546875,0.6831055,5.0961914,0.7768555,5.1000977-0.6142578
			c0-0.6318359,0.6318359-0.71875,1.387207-0.5737305c-0.0454102,0.2583008-0.0307617,0.5039063,0.0849609,0.7382813
			c0.9008789,1.7250977-3.0629883,2.9091797-3.0795898,4.4375c-0.0180664,1.5283203,6.4121094-2.1401367,8.5263672-2.4331055
			c2.105957-0.2792969-8.3945313,4.5205078-4.8984375,4.6904297c2.328125,0.1035156,5.8251953-1.4790039,8.4345703-2.390625
			c0.5419922,0.9550781,0.7675781,2.171875-0.7910156,3.0849609c-2.3188477,1.3759766-0.496582,0.6210938-0.1030273,3.375
			c0.6010742,4.1777344,2.425293-2.2431641,3.8520508-1.4472656c-0.7583008,2.2744141-2.1367188,5.9482422-1.3989258,6.0771484
			c0.5898438,0.1201172,1.4423828-2.3632813,2.0566406-4.9501953c0.449707,1.7832031-0.0307617,4.9501953,1.5458984,7.2373047
			c1.9897461,2.8789063,1.9414063-5.6181641,2.8115234-3.6953125c0.8637695,1.9541016,1.1386719,9.3349609,2.4282227,8.5146484
			c0.6816406-0.4384766,0.5185547-4.7041016,0.4921875-8.6181641c1.1669922,3.2802734,2.3623047,6.7685547,3.3173828,7.6689453
			c2.1298828,2.03125-1.1591797-6.5117188-0.1845703-10.6445313c0.0136719-0.0488281,0.0263672-0.0976563,0.0351563-0.1464844
			c0.265625,1.3720703,0.3857422,2.8349609,0.4111328,3.8046875c0.0332031,2.2998047,1.4726563-0.4091797,2.5507813,2.7978516
			c1.09375,3.1972656,2.75,11.9902344,3.4921875,11.5771484c0.7392578-0.4033203-3.140625-12.0205078-0.4619141-8.3222656
			c2.6601563,3.6787109,2.4316406,7.5791016,4.1269531,9.8857422c1.6972656,2.3066406,1.9111328-0.2744141,2.6171875-1.5224609
			c0.6035156-1.0458984-6.9521484-15.5185547-6.9970703-18.3486328c2.2431641,2.9707031,3.4355469,7.4931641,5.1357422,9.5009766
			c1.1904297,1.4052734,0.0234375-1.5058594-1.0429688-5.2832031c3.2558594,5.9863281,6.5546875,15.4228516,7.7158203,16.2255859
			c1.5585938,1.1015625-1.125-5.4902344,0.9736328-4.0908203c2.1103516,1.3867188-0.1572266,5.375,2.1630859,2.7587891
			c2.3095703-2.6123047-6.3798828-12.5019531-1.6308594-9.921875c4.7402344,2.5927734,5.0927734,8.5712891,4.9628906,4.7695313
			c-0.1367188-3.7890625-9.6191406-8.2324219-4.3544922-6.3818359c5.2695313,1.8369141,5.1152344,6.2929688,5.7011719,5.8066406
			c0.6035156-0.4902344,0.5771484-2.4648438-0.9912109-4.0732422c-1.5673828-1.6123047-0.3554688-1.0332031,0.8623047-0.2431641
			c1.2080078,0.78125,2.4355469,1.8925781,2.7412109,1.5537109C96.6191406,70.1791992,94.3730469,68.2954102,94.1542969,66.300293z"
			/>
	</g>
</svg>
