<?xml version="1.0" encoding="UTF-8" standalone="no"?>
<svg width="397px" height="407px" viewBox="0 0 397 407" version="1.1" xmlns="http://www.w3.org/2000/svg" xmlns:xlink="http://www.w3.org/1999/xlink" xmlns:sketch="http://www.bohemiancoding.com/sketch/ns">
    <!-- Generator: Sketch 3.4.4 (17249) - http://www.bohemiancoding.com/sketch -->
    <title>Slice 1</title>
    <desc>Created with Sketch.</desc>
    <defs></defs>
    <g id="Page-1" stroke="none" stroke-width="1" fill="none" fill-rule="evenodd" sketch:type="MSPage">
        <g id="Group" sketch:type="MSLayerGroup" fill="#008F3E">
            <path id="Shape" sketch:type="MSShapeGroup" d="M3.9243164,259.854492 C3.9243164,259.854492 3.921875,259.879883 3.921875,259.884766 C3.9121094,259.884766 3.8681641,259.871582 3.8544922,259.871582 C3.8574219,259.867676 3.9243164,259.854492 3.9243164,259.854492"></path>
            <path d="M130.545898,227.845703 C129.849609,228.864746 128.467285,230.398926 127.76416,231.406738 C116.387695,246.535645 102.62207,263.162109 86.9536132,271.538086 C80.9902343,275.430664 74.0581054,277.859863 65.0292968,279.232422 C47.9389648,280.015137 31.1801757,278.408203 25.317871,261.367676 C24.520996,258.190918 23.6313476,253.600586 23.6313476,248.960449 C23.6313476,244.485352 24.4575195,239.961426 26.9907226,236.608398 L27.0898437,236.474121 L27.1567382,236.319336 C29.314453,231.281738 32.3012695,226.638672 35.4672851,222.185547 C35.887207,221.588379 36.3144531,220.993652 36.7441406,220.411133 C37.1367187,219.866699 37.7138672,219.358398 37.7231445,218.652344 C37.7285156,218.279785 37.7080078,218.262695 37.9560547,217.935547 C38.3613281,217.402344 38.699707,216.612305 38.7597656,215.940918 C38.8154297,215.26709 39.0546875,214.852051 39.4370117,214.273926 C39.8818359,213.599609 40.368164,212.825683 40.5839844,211.859375 C40.9082032,210.988769 41.0634766,210.178711 41.0634766,209.446289 C41.0634766,207.732422 40.3540039,206.362793 39.7490235,205.192383 L38.8857422,203.311523 L38.6484375,203.000488 C36.8027344,201.207031 35.7617187,198.533203 34.7553711,195.953613 C34.7553711,195.953613 34.3442383,194.908691 34.2587891,194.690429 C34.1997071,194.368164 33.6674805,191.471191 33.6674805,191.471191 C33.203125,189.158691 32.7578125,186.93457 32.7578125,184.682129 C32.7578125,183.697265 32.8447266,182.711426 33.0493164,181.705566 C35.5297852,168.774902 39.3266602,155.908203 50.2358398,149.260254 C60.1455078,141.768066 73.7392578,142.320801 85.7167968,143.418457 C99.6831055,146 113.693848,154.468262 128.427734,169.287598 C131.475586,172.350098 134.340332,175.362793 137.940918,177.816406 C141.42627,180.1875 145.259277,182.043945 149.30957,183.230957 C151.317383,183.818848 153.371582,184.241699 155.447266,184.502441 C157.268066,184.734863 159.373047,185.139648 161.07373,184.230957 C161.397949,184.060059 161.616211,183.70459 161.94873,183.535645 C162.263672,183.374024 162.666504,183.374024 162.958496,183.220703 C163.744141,182.806641 163.429199,182.335938 162.623047,182.071289 C162.020508,181.872559 161.636719,181.737793 161.02832,181.572266 C160.584961,181.452148 160.119629,181.20752 159.692383,181.026856 C158.637695,180.587402 157.657226,179.981445 156.743164,179.299805 C154.889648,177.915039 153.297851,176.218262 151.706054,174.547852 C150.352539,173.129883 148.954101,171.655273 147.483398,170.441406 L147.332031,170.316895 L147.150879,170.241211 C146.447265,169.933106 145.785644,169.312012 145.08789,168.651367 C144.350586,167.957519 143.564453,167.279785 142.628418,166.805176 C142.54834,166.742676 135.676269,161.15918 135.676269,161.15918 C134.596679,160.279785 133.479492,159.447266 132.393066,158.57666 C131.877929,158.165527 131.421386,157.751465 130.98584,157.281738 C130.6333,156.898926 130.066894,156.772949 129.645508,156.48291 C129.291015,156.236328 129.031738,156.041504 128.743652,155.72168 C128.556152,155.513184 128.382324,155.379883 128.148925,155.239746 C127.957031,155.122559 127.618652,155.037598 127.471191,154.919434 C127.37207,154.844727 127.379394,154.701172 127.285156,154.635742 C127.179199,154.562988 127.039062,154.600098 126.953125,154.546875 C126.548828,154.290527 126.22705,153.896484 125.830078,153.617676 C125.332031,153.266113 124.83496,152.917481 124.336914,152.568359 C123.341308,151.868164 122.343261,151.172363 121.343749,150.480469 C119.250976,149.03418 117.148925,147.604004 115.030273,146.196289 C110.051757,142.892578 104.982421,139.711914 99.7568354,136.810059 C98.4902338,136.265625 97.4130854,135.592285 96.2656245,134.875977 C94.7465815,133.924805 93.151855,132.991211 91.3632807,132.437012 C90.5439448,131.440918 89.5351557,131.288574 88.8901362,131.226074 C88.3422846,131.172363 88.3085932,131.146973 88.1962885,130.997559 L87.6723627,130.305664 L86.8217768,130.479492 C86.0522455,130.635254 85.5058588,130.368652 84.5302729,129.842285 C83.9692377,129.540039 83.3188471,129.226074 82.5766596,129.005859 C81.8002924,128.280762 80.9243158,128.246582 80.3286127,128.400879 C76.579101,126.92041 72.6352533,125.879883 68.8095697,124.897461 L64.0273431,123.637695 L63.9062493,123.654785 L62.4316399,123.827637 C61.7812493,123.95166 61.6030266,123.967285 61.3515618,123.831543 L61.0458977,123.664063 L59.7275383,123.664063 C53.5244133,123.661133 46.4916985,123.651856 40.7387688,126.589844 L38.3481438,127.809082 C38.3481438,127.809082 38.4536126,127.866699 38.4658196,127.869629 C36.8369133,128.602051 35.4653313,129.478516 34.2587883,130.592774 C32.7871086,131.11377 31.5678703,132.102539 30.5185539,133.052246 L29.0341789,134.314453 L29.442382,134.106445 C28.551757,134.385254 27.9550773,135.125488 27.47705,135.720215 L27.0043937,136.263672 L26.688964,136.443359 C26.688964,136.443359 26.4003898,136.983887 26.3559562,137.068848 C26.3476554,137.073731 25.626464,137.446777 25.626464,137.446777 L25.2944327,137.758789 C15.697753,150.238281 10.6718741,164.984375 10.6718741,180.567383 C10.6718741,181.507813 10.6879874,182.454102 10.7260733,183.40332 C11.3378897,190.17334 13.6562491,196.458985 18.0312491,203.254883 C19.1464835,204.81543 20.3022452,206.361817 21.61621,207.762695 C22.237792,208.421387 22.8955069,209.052246 23.6025381,209.618164 C23.9365225,209.883789 24.281249,210.158692 24.6489248,210.375488 C25.0122061,210.591797 25.4184561,210.588867 25.7954092,210.773438 C26.0039053,211.231934 25.1533194,211.577637 24.9819326,211.916992 C24.7133779,212.457031 24.5322256,213.283203 23.9780263,213.67627 C20.0151357,216.504395 16.227538,220.47168 13.5600575,224.626465 L13.4594716,224.782227 L13.4062489,224.958008 C12.6186512,227.464844 11.1845692,229.687012 9.6699208,232.039063 C7.9379872,234.720703 6.1479481,237.500977 5.340331,240.796875 C5.371581,240.681641 4.1069326,243.828614 4.1069326,243.828614 C3.2524404,245.777832 2.4018545,247.814453 2.0639638,250.125977 C2.0493154,250.231934 1.8603505,250.410157 1.8017568,250.513184 C1.7104482,250.665528 1.6254873,250.825195 1.555663,250.991699 C1.4355458,251.270508 1.41162,251.64502 1.2607411,251.899902 C1.1835927,252.03418 1.1762684,251.952149 1.080077,252.020996 C0.9028309,252.14502 0.9042957,252.358399 0.8818348,252.598633 C0.8271473,253.199707 0.8466785,253.8125 0.8466785,254.416504 C0.8466785,255.167969 0.8671863,255.912598 0.8671863,256.667969 C0.8671863,256.981934 0.7836902,257.526367 1.0361316,257.735352 C1.2299793,257.903321 1.2368152,257.994141 1.1699207,258.203125 C1.076659,258.478027 1.0112293,258.766602 1.0112293,259.057617 C1.0112293,259.400879 1.0112293,259.772949 1.1298816,260.098145 C1.3378894,260.649414 1.8432605,260.321289 2.2861316,260.219238 C2.2978504,260.243164 2.3183582,260.289551 2.3183582,260.289551 C2.1103504,261.038086 1.9057605,261.250488 1.8999012,261.254395 C1.7324207,261.379395 1.5410145,261.42627 1.4194324,261.612793 C1.3012683,261.797852 1.2724597,262.036133 1.2353504,262.243164 C1.1616199,262.649902 1.080077,263.028809 1.080077,263.449219 C1.080077,263.779297 1.1010731,264.099609 1.1342762,264.419434 C1.1630848,264.708496 1.1328114,265.003418 1.1538075,265.292481 C1.1743153,265.542969 1.28662,265.743652 1.3071278,265.992188 C1.3583973,266.595215 1.3935536,267.196289 1.4384755,267.797363 C1.4721669,268.266602 1.50537,268.737305 1.5395497,269.213379 C1.5458974,269.290039 1.6357411,269.717285 1.5810536,269.783691 C1.8066395,269.524414 2.0327138,269.269531 2.2578114,269.01416 C2.3759755,268.882812 2.5136708,268.578613 2.7163075,268.570801 C3.1821278,268.561523 3.2148427,269.585937 3.2861317,269.895996 L3.3217762,269.865723 C3.2617176,270.250488 3.1948231,270.635254 3.1948231,271.01416 C3.1948231,271.796875 3.3212879,272.504883 3.5419911,272.878418 L4.2568349,274.087402 L5.4536122,273.352051 C5.571288,273.27832 5.5913075,273.169434 5.6938466,273.100586 C5.6938466,273.100586 5.9448232,273.108887 6.1923818,273.112793 C6.2045888,273.440918 6.2241201,273.903809 6.2241201,273.903809 L6.3623037,276.128418 L6.4472646,276.236816 L7.0791005,278.238769 C7.2973622,279.085937 7.5610341,279.927246 7.9555653,280.690918 C7.946288,280.806152 7.9326161,280.926269 7.9326161,281.038086 C7.9326161,282.799805 8.7714833,284.419922 10.3066395,285.566894 C10.3066395,285.567871 10.9711903,286.062012 11.6103504,286.54248 C11.8618152,287.062012 12.5380848,288.478027 12.5380848,288.478027 C12.5380848,288.478027 12.8315418,287.839355 13.1284168,287.207519 C13.2231434,287.419434 13.3154285,287.632324 13.4062488,287.856934 L14.2480457,289.702148 L14.8207996,289.760742 C14.9282215,289.787598 14.995116,289.86084 15.2592762,290.336426 L16.6586903,292.124023 L16.8701161,292.016113 C17.4091786,292.162598 18.1430653,292.806641 18.8515614,293.419922 C19.883788,294.320801 21.0541981,295.34082 22.50537,295.725586 C29.4218739,298.272949 37.0649403,300.740234 45.2407216,301.284668 C61.6748036,302.612793 78.1904286,297.258789 94.3051747,285.365234 C108.083007,275.199219 121.291014,260.483887 133.560546,241.634277 C133.569335,241.618652 136.745116,236.773926 138.770018,233.685547 L140.499022,231.588379 C140.830565,231.199707 141.345702,230.932129 141.585936,230.47168 C141.883788,229.902832 142.214354,229.387695 142.605956,228.854492 C143.429198,227.731445 144.28955,226.636719 145.102538,225.503418 C145.102538,225.503418 150.285155,218.323242 150.344725,218.242676 C151.124511,217.541504 151.708007,216.685059 152.239257,215.820312 C152.74121,215.000488 153.216308,214.228516 153.819335,213.748047 L153.970702,213.625977 L154.085936,213.467285 C155.185546,211.911621 156.156249,210.124023 157.093749,208.400879 C158.193358,206.37207 159.290038,204.319824 160.719237,202.503418 C161.421386,201.606934 162.210936,200.762207 163.117186,200.06543 C163.480956,199.781738 163.866698,199.42334 164.262694,199.193848 C164.80664,198.873535 165.141112,198.643555 165.672362,198.293945 C166.382323,197.833496 166.563476,197.294922 165.697753,197.097168 C165.374511,197.024414 164.987792,197.130371 164.640136,197.056641 C164.274413,196.979004 163.971679,196.695313 163.61328,196.615234 C161.734374,196.178223 159.811522,197.117188 158.109374,197.818359 C156.174315,198.609863 154.301757,199.555664 152.518065,200.644043 C148.915526,202.847168 145.697753,205.634766 142.952636,208.834473 C140.114257,212.141113 138.130858,215.794434 135.987304,219.544434 C134.423828,222.28125 132.155762,225.394043 130.545898,227.845703" id="Shape" sketch:type="MSShapeGroup"></path>
            <path d="M177.546875,19.6186523 C177.458984,19.6166992 177.374023,19.6137695 177.285156,19.6411132 C176.688476,19.8237304 176.427734,20.3984374 176.013672,20.7958984 C175.513672,21.2749023 174.938476,21.6674804 174.452148,22.1699218 C173.523438,23.1274413 172.766601,24.2104491 171.944336,25.2558593 C171.944336,25.2558593 170.47998,27.1201171 170.235351,27.4291991 C167.560058,29.080078 164.043457,29.0541991 162.134277,28.0400389 L162.010254,27.9775389 L161.876953,27.9365233 C161.575684,27.8471678 161.283203,27.5317381 160.943359,27.1645506 C160.486328,26.6689451 160.021484,26.3955076 159.49414,26.0493162 C159.101562,25.7939451 158.93457,25.5942381 158.88916,25.1020506 C158.86914,24.8686522 159.307617,22.5937498 159.464844,22.6298826 C159.131836,22.5537107 159.02539,22.4272459 158.650879,21.6518553 L157.85791,20.1762694 L157.30957,20.1142577 C156.260254,19.8554686 155.074707,19.2290038 153.928222,18.6230468 C153.928222,18.6230468 153.269531,18.2851562 152.839355,18.0605468 C152.115234,16.6874999 150.517578,16.5454101 149.655761,16.5146484 C149.183105,16.4985351 148.702148,16.4125976 148.231933,16.359375 C147.772461,16.3076172 146.609863,16.3774414 146.288574,16.043457 C146.019043,15.7666015 146.301758,15.6381836 146.15039,15.375 C145.783691,14.746582 145.071289,15.4887695 144.621093,15.6098633 C144.114258,15.7475586 143.52539,15.7070313 143.002929,15.7924805 C142.142578,15.9331055 140.873047,16.2265625 140.854492,17.3183594 C139.449707,17.8730469 139.070312,16.5083008 137.77539,16.1328125 C137.142089,15.9501953 136.492675,15.8139648 135.833007,15.7792969 C135.254394,15.7475586 134.711914,15.9462891 134.15332,15.9028321 C133.540039,15.854004 133.030273,15.4794923 132.436523,15.3691407 C131.769531,15.2470704 131.233398,15.6079102 130.620117,15.8066407 C129.067871,16.3129884 127.633789,17.0976563 126.210937,17.8862305 C124.512695,18.8251953 122.910156,19.7138672 121.270996,19.9550782 L121.01123,19.9926759 L120.782227,20.125 C115.830078,22.9907227 111.404297,25.6938477 107.342773,29.7905273 C97.3496094,39.6713867 91.3095704,51.699707 88.8857422,66.5532226 C88.1655274,70.0151367 87.8027344,73.4355468 87.8027344,76.8154296 C87.8027344,87.1083984 92.2475586,103.22998 95.5170899,108.253418 C101.453613,117.375977 116.945801,136.198242 132.42041,146.667969 C136.3125,149.384766 140.050781,152.682129 144.005859,156.173828 C149.169922,160.733887 154.51416,165.44873 160.45459,168.872559 L160.663086,168.991699 L161.054688,169.0625 C161.775879,169.189941 163.965332,169.580566 164.895508,167.558594 C166.419922,164.545898 163.60791,162.243164 161.725586,160.405762 C159.233887,157.975586 156.900391,155.369141 154.61084,152.750977 C153.367676,151.331055 152.133301,149.911133 150.895996,148.486816 C147.85498,144.978027 144.710938,141.352051 141.347656,137.895996 C140.461914,136.746582 139.430664,135.894043 138.481445,134.787109 C137.976074,134.196289 137.242188,133.807617 136.638184,133.33252 C135.433106,132.393555 134.09082,131.499512 133.279785,130.405762 C132.275879,129.06543 131.223633,128.777832 130.084961,127.657715 C128.570313,126.166992 127.842774,124.108398 126.374512,122.565918 C124.665527,120.774414 123.044434,118.902832 121.484863,116.980957 C118.70752,113.549805 116.117676,109.959473 113.760742,106.228516 C110.286133,100.724609 109.328613,86.6333008 109.328613,79.3867187 C109.328613,73.1738281 110.537598,67.0224609 114.069336,61.2954101 C120.635742,50.8266601 131.195313,44.8115234 145.441406,43.4189453 C146.498535,43.440918 147.489258,43.0922851 148.366211,42.784668 C149.769043,42.2924805 150.272949,42.1982422 150.682129,42.5639649 L151.116211,42.9497071 L151.696289,42.9086915 C153.698731,42.7656251 155.468262,43.404297 157.340821,44.0776368 C158.85791,44.6259766 160.433594,45.1689454 162.208008,45.3544923 C168.924805,47.8403321 175.387696,42.6606446 180.586914,38.4760743 C180.586914,38.4760743 181.929688,37.4062501 182.125,37.2504884 C182.547852,37.0512696 185.651368,35.6171876 185.651368,35.6171876 C187.461914,34.7055665 189.173828,33.8452149 191.014649,33.385254 L191.16211,33.3481446 L191.296875,33.2812501 C200.46875,28.7041017 214.838868,24.7592774 225.141602,28.7124024 L225.211914,28.7436524 L225.288086,28.7622071 C235.748047,31.456543 242.654297,40.0830079 247.014649,55.9091798 C247.661133,58.4926759 247.827149,61.0747071 247.945313,63.6313478 C248.700196,80.1645509 227.865235,107.365723 223.56543,111.814942 C223.56543,111.814942 217.558594,118.165528 217.428711,118.304199 C211.453125,123.485352 205.556641,128.768555 200.017579,134.421387 C194.541993,140.018067 189.382813,145.990235 185.117188,152.572266 C183.097657,155.687989 181.28418,158.941406 179.782227,162.337891 C179.052735,163.982422 178.397461,165.663086 177.833008,167.368653 C177.548829,168.219238 177.363282,169.124024 177.048829,169.960449 C176.809571,170.598633 176.28125,171.294434 176.432618,172.020996 C176.495118,172.325684 176.705079,172.389649 176.874024,172.603516 C177.119141,172.907715 177.110352,172.960938 177.172852,173.384278 C177.481446,175.459961 179.417969,172.75293 179.855469,172.125977 C181.313477,170.050293 182.892579,168.268555 184.732422,166.48584 C186.391602,164.87793 188.051758,163.245117 189.398438,161.352051 C189.931641,160.604004 190.550782,159.851563 190.904297,158.991699 C191.246094,158.165527 191.450196,157.492188 191.966797,156.714356 C193.553711,154.327637 195.711915,152.559082 197.78711,150.585449 C200.497071,148.013184 203.28711,145.34375 205.511719,142.387207 C216.044922,133.253906 225.451172,122.371094 234.541016,111.841797 L243.347657,101.741211 L246.157227,97.7749023 C248.554688,94.4882812 267.234375,71.7670898 268.616211,54.1933593 C268.796876,51.8808593 269.437501,49.7983398 269.437501,47.7202148 C269.437501,42.6606445 268.00879,38.0263671 266.613282,33.5014648 L265.077149,28.2207031 L264.94043,27.9970703 C263.856446,26.409668 263.126954,24.6489258 262.348633,22.7880859 C261.386719,20.4628906 260.358399,18.0756836 258.615235,16.0258789 C257.550782,13.1923828 255.00879,11.394043 252.729493,9.8208008 C251.292969,8.8305664 249.9375,7.8945313 249.064454,6.8134766 L248.905274,6.6186524 L248.69336,6.4902344 C242.137696,2.6171875 234.557618,0.5605469 224.840821,0.0219727 C222.551758,-0.040039 220.249024,0.0297852 217.960938,0.2280274 C210.381836,0.885254 202.945313,2.9731446 196.114258,6.3129883 C192.674805,7.9956055 189.389649,9.9931641 186.309571,12.2661133 C184.75293,13.4155274 183.250977,14.6342774 181.805664,15.9184571 C181.077149,16.5664063 180.366211,17.2285157 179.668946,17.909668 C179.344727,18.2236328 178.986328,18.4990235 178.664063,18.7973633 C178.416016,19.0263672 178.213867,19.4165039 177.913086,19.5722656 C177.793945,19.6357422 177.668945,19.625 177.546875,19.6186523" id="Shape" sketch:type="MSShapeGroup"></path>
            <path d="M170.169922,60.0239258 C170.130371,60.6445313 170.118652,61.2705078 170.110352,61.8969727 C170.110352,61.900879 170.104492,62.2646485 170.104492,62.2646485 L170.22168,62.097168 L169.998047,62.4174805 L169.719727,63.0986328 C169.704102,67.8330078 168.92041,73.0209961 168.072266,77.7192383 L168.048828,77.8549805 L168.055176,77.9946289 C168.079102,78.5073242 168.090332,79.0224609 168.090332,79.5361328 C168.090332,82.8232422 167.624024,86.0961914 167.166016,89.2749023 C166.700684,92.5234375 166.225098,95.8564453 166.225098,99.2729492 C166.225098,100.201172 166.26416,101.13916 166.344238,102.07959 C165.983399,104.758789 165.817871,107.399902 165.817871,110.003906 C165.817871,117.080078 166.907715,120.095703 168.007813,126.736328 L169.258789,133.400391 C169.251953,133.347168 169.446778,136.291992 169.446778,136.291992 C169.523438,138.01123 169.71875,139.664551 169.991211,141.358398 C170.141602,142.290527 170.081055,143.875977 171.029297,144.478027 C171.624024,144.854004 171.722656,144.283203 171.921875,143.875977 C172.395508,142.919922 173.665039,142.531738 174.242188,141.600586 C174.805664,140.685547 174.945313,139.623047 175.057617,138.592773 C175.145508,137.795898 175.22461,137.043457 175.542969,136.527344 L175.590821,136.450684 L175.625,136.367676 C176.734375,133.816406 177.079102,131.056152 177.41211,128.384766 C177.69336,126.140625 177.957032,124.018555 178.637696,122.046875 C180.215821,117.992676 180.698242,113.625488 180.698242,109.274414 C180.698242,105.631348 180.357422,102.000488 180.040039,98.5766602 C179.967774,97.8173829 179.887696,97.0854493 179.561524,96.375 C178.978516,95.0986328 178.753906,93.7470703 178.486328,92.3920898 C177.972657,90.1264648 177.482422,87.9692382 177.482422,85.5629882 C177.482422,85.1391601 177.497071,84.7045898 177.530274,84.2641601 L177.577149,83.6220703 C177.577149,83.6220703 177.049805,83.1865234 177.048828,83.1865234 C176.946289,82.5322265 176.889649,81.8496093 176.889649,81.1035156 C176.889649,80.7392578 176.894531,80.3652343 176.899414,79.9853515 C176.90625,79.6079101 176.91211,79.2250976 176.91211,78.8427734 C176.91211,77.2641601 176.806641,75.684082 176.148438,74.2958984 L176.035156,74.0537109 L175.828125,73.8730468 C175.547852,73.6274413 175.436523,73.2690429 175.436523,72.8120116 C175.436523,72.1777343 175.651367,71.3520507 175.932617,70.3730468 C176.06836,69.8984374 176.269531,69.3764648 176.253906,68.8784179 C175.186524,68.8408202 175.967774,67.3159179 175.806641,66.7290038 C175.678711,66.2539061 175.350586,66.0268554 175,65.6591796 C174.425781,65.0624999 174.768555,64.5659179 175.066406,63.9384765 C173.704102,62.3159179 173.018555,60.5039062 172.642578,58.5170898 C172.314453,56.7910156 172.625977,54.512207 171.239746,53.152832 C170.300293,52.230957 170.771973,53.9106445 170.871094,54.3579101 C171.041504,55.1318359 170.746582,56.1542968 170.623536,56.9277343 C170.458008,57.9667969 170.233398,58.9667969 170.169922,60.0239258" id="Shape" sketch:type="MSShapeGroup"></path>
            <path d="M299.948242,78.4384766 C282.350586,82.8691407 266.368164,90.2402344 256.283203,102.100586 C247.319336,112.637695 238.445312,123.246094 229.55957,133.851074 C225.056641,139.228027 220.444336,144.379395 215.983398,149.739258 C213.529297,152.689453 211.025391,155.599121 208.545898,158.526367 C203.916992,163.982422 198.993164,169.141113 193.992188,174.251953 C193.287109,174.976074 189.40625,177.086914 190.003906,178.271973 C190.860352,179.958496 196.109375,176.662598 196.974609,176.241699 C204.867187,172.396484 212.663086,168.499023 219.525391,162.979492 C222.279297,160.76416 225.145508,158.675781 227.731445,156.258789 C230.394531,153.771973 232.582031,150.827149 234.982422,148.097168 C240.609375,141.700684 246.444336,135.480957 252.303711,129.296875 C252.306641,129.292969 258.816406,122.702637 258.816406,122.702637 C258.816406,122.702637 262.475586,119.05957 262.65332,118.883789 C267.364258,115.40918 272.269531,112.131836 277.645508,108.868652 C288.836914,103.542969 298.625,100.75 308.325195,100.140137 C311.050781,100.470215 313.899414,100.513184 316.65625,100.549316 C319.964844,100.589844 323.391602,100.632813 326.541992,101.193359 L326.716797,101.224121 L326.896485,101.209961 C332.261719,100.754395 336.694336,102.939941 341.387695,105.255859 L344.426758,106.721191 C355.158203,112.782227 361.266602,123.533691 361.266602,135.507324 C361.266602,138.523926 360.88086,141.618652 360.082031,144.733887 C358.514649,150.845215 355.708984,156.677734 352.65332,162.16748 C350.256836,166.477051 342.882813,172.559082 347.533203,177.013184 C350.271485,179.640137 359.754883,183.688477 362.12793,198.651367 C364.897461,216.108398 360.929688,229.245605 354.514649,239.279785 C349.989258,245.687988 343.779297,250.394043 337.770508,254.943848 L332.708985,258.843262 C323.681641,266.177246 307.920899,264.765137 299.524414,260.860352 C291.122071,256.952637 263.623047,241.901855 247.546875,225.240723 L243.636719,221.478516 C240.213867,218.182129 237.186524,214.429688 233.825196,211.0625 C230.4375,207.673828 226.90918,204.412598 223.125977,201.469238 C215.941406,195.883301 207.654297,191.400879 198.492188,190.382813 C196.411133,190.150391 194.308594,190.09668 192.217773,190.216797 C191.107422,190.280762 189.996094,190.402832 188.892578,190.555176 C187.807617,190.710938 186.514648,190.664551 185.50293,191.101563 C184.280273,191.631836 185.083985,192.172363 186.025391,192.29541 C186.954102,192.421875 187.411133,192.686524 188.120117,193.32959 C189.898438,194.938965 192.138672,195.987305 194.129883,197.309082 C196.407227,198.825195 198.575195,200.503906 200.661133,202.272461 C204.900391,205.883301 208.795899,209.884766 212.588867,213.953125 C213.007813,214.398438 213.417969,214.844727 213.833985,215.292481 C219.726563,222.229004 227.175781,229.692871 236.560547,238.057617 C239.033203,240.049317 272.244141,266.177246 280.268555,271.250488 L291.883789,278.720215 C291.993164,278.780762 297.385742,281.862305 297.385742,281.862305 C302.24707,284.726563 307.273438,287.688965 312.936524,288.983887 C312.903321,288.973633 316.767578,290.019043 316.767578,290.019043 C321.461914,291.325195 326.326172,292.681641 331.688477,292.723145 C341.577149,293.884278 352.175781,290.157715 361.382813,282.223145 C376.112305,272.706543 387.041016,259.979981 391.376953,247.271973 C394.803711,240.465332 396.171875,232.900391 396.171875,225.457031 C396.171875,216.221192 394.080078,207.186035 391.249024,200.077637 C389.336914,194.225586 385.170899,189.429199 381.141602,184.789063 C378.927734,182.243164 376.576172,179.612793 376.623047,175.963867 C376.674805,172.050293 378.033203,168.001953 380.454102,164.928711 C380.462891,164.912598 380.982422,164.212403 380.982422,164.212403 C381.727539,163.194336 382.568359,162.040039 383.472656,161.788574 L384.009766,161.636231 C384.009766,161.636231 384.30957,161.12207 384.322266,161.094727 L384.762695,160.772461 C385.167969,160.51416 386.029297,159.911133 386.203125,158.876465 C386.370117,158.879883 386.5625,158.886719 386.5625,158.886719 L387.128906,158.448242 L387.208984,158.373535 C387.822266,157.828125 388.020508,157.300293 388.020508,156.85791 C388.020508,156.608399 387.955078,156.381836 387.874023,156.194336 C387.874023,156.194336 387.727539,155.862793 387.617188,155.609375 C387.944336,155.040528 388.214844,154.433594 388.298828,153.711426 C388.298828,153.711426 388.501953,152.106934 388.532227,151.863282 C388.756836,151.4917 388.999023,151.122071 389.186523,150.73584 C387.058594,151.748047 387.932617,149.154297 388.453125,148.029297 C388.870117,147.131348 389.370117,146.23877 390.108398,145.564942 C390.792969,144.933594 391.916992,144.894043 392.400391,144.093262 C392.538086,143.864258 392.5625,143.646973 392.585938,143.432617 L392.838867,143.432617 C393.038086,143.432617 392.979492,141.827637 392.945313,141.671387 C392.822266,141.026856 392.459961,140.699707 392.598633,139.962403 C392.851563,138.659668 394.066406,137.544434 394.433594,136.213379 C394.082031,136.368653 393.664062,137.099121 393.256836,136.604004 C393.041992,136.337403 393.459961,135.400391 393.53418,135.130371 C392.629883,136.188965 392.917969,134.631836 393.087891,134.191407 C393.4375,133.29834 393.833008,132.348145 394.496094,131.637207 C394.462891,130.95752 394.449219,130.271485 394.424805,129.591797 C394.492187,129.392578 394.552734,129.176758 394.552734,128.927246 C394.552734,128.681641 394.5,128.410157 394.375,128.123047 L394.232422,127.817383 L393.845703,127.516114 C393.701172,127.400879 393.484375,127.240723 393.208984,127.10791 C393.091797,126.247559 392.986328,125.45166 392.922851,124.988282 C393.46875,124.14795 393.765625,123.269043 393.765625,122.389649 C393.765625,121.092774 393.336914,119.820801 392.986328,118.757325 C392.704101,117.813965 392.422851,116.861817 392.133789,115.930664 C391.435547,116.32959 391.002929,117.401856 390.639648,115.854981 C390.179687,113.913574 391.205078,111.17627 388.790039,110.081543 C388.522461,108.266602 387.399414,106.550782 386.091797,105.367676 C385.729492,103.342774 384.459961,101.990723 383.284179,100.817383 C382.249023,99.7875979 381.359375,98.8994143 381.159179,97.6621097 L381.013672,96.7822269 L380.154297,96.5527347 C379.001953,96.2441409 378.367187,95.405762 377.563476,94.3471683 C376.90332,93.4707035 376.152344,92.4775394 375.008789,91.7265628 C375.008789,91.7265628 374.706054,91.530762 374.704101,91.530762 C374.260742,90.6655276 373.639648,90.2197268 372.863281,90.1669925 C366.829101,84.0581058 357.688476,80.3261722 350.948242,77.5971683 L350.854492,77.5571292 L350.74707,77.5336917 C335.063477,73.8149414 317.017578,74.1342773 299.948242,78.4384766" id="Shape" sketch:type="MSShapeGroup"></path>
            <path id="Shape" sketch:type="MSShapeGroup" d="M392.958008,137.51709 L392.961914,137.541504 L392.834961,137.794922 C392.917969,137.703125 392.896484,137.608887 392.958008,137.51709"></path>
            <path d="M97.3046875,190.722168 C94.6884766,190.937988 92.4448242,192.251953 90.2773437,193.523926 C87.7944335,194.977051 85.446289,196.352539 82.871582,195.796387 L82.3735351,195.687988 L81.9482421,195.993164 C81.2392577,196.496094 80.3159179,196.656738 79.3393554,196.82959 C78.3774413,197.001953 77.3134765,197.264648 76.3115234,197.822266 C74.9414062,197.46582 73.7055664,197.703125 72.6176757,197.999023 L70.7880859,198.380859 C70.7880859,198.380859 67.2602539,198.949707 67.2543945,198.949707 C64.1333007,199.449219 61.0170898,200.060547 57.96875,200.97168 C55.3876953,201.739258 52.328125,202.180176 49.9262695,203.449219 C49.6303711,205.463867 53.4570312,204.356934 54.4658203,204.37207 C56.9868164,204.408692 59.3232422,205.468262 61.9228516,205.34668 C64.6401368,205.22461 67.3344727,204.773926 70.0410157,204.520508 C73.0122071,204.244629 75.8168946,203.985352 78.4560548,204.350098 L78.6376953,204.375 L78.8212891,204.341797 C83.2167969,203.526855 87.2919922,203.833984 91.609375,204.160156 C95.3417969,204.438965 99.2041016,204.72168 103.327148,204.236816 C110.44043,205.102539 116.776367,202.776367 122.900879,200.513184 C124.947266,199.759277 126.993652,199.001953 129.075195,198.36377 C129.82666,198.131348 130.716309,198.117188 131.355469,197.567871 C131.604004,197.35791 131.706055,197.104004 132,196.943848 C132.232422,196.818359 132.536133,196.844727 132.778809,196.729492 C133.057617,196.595215 133.537109,195.998047 133.771484,195.766113 C134.179688,195.361816 134.342285,194.977051 134.207031,194.370117 C134.067383,193.751953 133.691895,193.294434 133.147461,193.102539 C130.524414,192.17334 127.543945,192.161133 124.820801,191.708984 C121.831543,191.212891 118.822754,190.712891 115.790527,190.71875 C112.953613,190.727051 110.918457,191.619629 108.168945,191.827148 C104.55127,192.098633 100.952637,190.342285 97.3046875,190.722168" id="Shape" sketch:type="MSShapeGroup"></path>
            <path d="M324.330078,170.166504 L321.536133,170.303711 L321.444336,170.300781 L307.981445,170.70459 C301.549805,170.940918 295.464844,171.15918 289.138672,171.131836 C283.303711,169.316894 276.749024,170.166504 270.398438,171.008789 C268.37793,171.274414 266.362305,171.544922 264.332031,171.729004 C263.311523,171.819824 262.288086,171.890625 261.266601,171.922851 C260.435547,171.951172 259.71875,172.271484 258.907226,172.376465 C258.416992,172.441894 258.021484,172.078613 257.546875,172.064453 C257.118164,172.050293 256.577148,172.333008 256.149414,172.429687 C255.06543,172.664062 253.96582,172.818848 252.873047,172.973144 C250.066406,173.368164 247.167969,173.804687 244.628906,175.476074 C242.734375,175.87207 240.911133,176.483887 239.15918,177.087891 C236.40332,178.03418 233.802734,178.928223 230.93457,178.987793 L230.825195,178.993652 L230.709961,179.018066 C229.522461,179.317871 228.845703,180.308105 227.837891,180.965332 C226.942383,181.547363 224.791992,181.711914 224.731445,182.316894 C224.673828,182.920898 227.6875,183.152832 228.771484,183.583496 C230.456055,184.254883 232.120117,185.007324 233.910156,185.129394 L234.160156,185.145996 L234.394531,185.040527 C237.058594,183.848144 239.075195,184.707519 241.418945,185.708496 C242.878906,186.327637 244.363281,186.899902 245.913086,187.041504 C246.651367,187.107422 247.68457,187.236328 248.368164,186.844727 C249.068359,186.445801 249.304687,186.018555 250.202148,186.322266 C254.207031,187.654785 258.955078,186.97998 263.063476,186.786133 C267.948242,186.560059 272.824219,186.089356 277.6875,185.528809 C281.758789,185.059082 285.825195,184.522461 289.883789,183.975098 L290.118164,183.946777 L290.325195,183.809571 C291.262695,183.196289 292.416016,182.953125 293.643555,182.695313 C295.068359,182.394531 296.859375,182.169434 297.875977,180.711914 C298.068359,180.431153 297.870117,180.202637 298.279297,179.964356 C298.865234,179.619141 299.516602,179.932129 300.106445,179.977539 C300.844727,180.032227 301.621094,179.854492 302.364258,179.836426 C303.828125,179.798828 305.287109,179.924317 306.74707,180.070801 L306.84082,180.078614 L306.941406,180.063477 C308.506836,179.903809 309.799805,179.070801 310.939453,178.327149 C312.048828,177.613281 313.010742,177.007325 314.124023,176.953614 C316.873047,177.983887 319.550781,177.486817 322.155273,176.975098 C323.924805,176.627442 325.675781,176.690918 327.4375,176.467774 C328.322266,176.350586 329.910156,175.890137 330.717773,175.226563 C331.203125,174.821778 331.243164,174.319825 331.90918,174.028809 C333.142578,173.488282 334.875,174.932617 335.777344,173.007813 C336.640625,171.160156 333.398438,171.170411 332.395508,170.857422 C329.711914,170.033203 327.097656,169.871582 324.330078,170.166504" id="Shape" sketch:type="MSShapeGroup"></path>
            <path d="M215.961914,251.118164 C214.538086,249.835449 209.480469,246.325684 207.911133,245.180176 C203.523438,241.975586 201.439453,240.05957 198.21582,236.628418 C196.295898,234.584473 194.845703,233.088379 193.217773,230.803711 C192.483398,229.772461 191.543945,228.620117 191.15918,227.436523 C190.991211,226.92041 191.077148,226.699219 190.709961,226.203125 C190.485351,225.894043 190.157226,225.697266 189.986328,225.339844 C189.787109,224.928711 190.097656,224.638672 189.856445,224.136719 C189.613281,223.628906 188.945312,223.463379 188.646484,222.976562 C188.493164,222.731934 188.442383,222.329102 188.357422,222.051269 C188.136719,221.355469 187.919922,220.661621 187.698242,219.963379 C186.861328,217.662598 186.583008,216.129394 186.490234,213.112793 C186.473633,212.531738 187.060547,208.123535 188.297851,209.131348 C188.555664,209.339355 188.524414,210.144043 188.65625,210.448242 C189.126953,211.525879 190.433594,212.545898 191.200195,213.433105 C193.012695,215.526367 195.060547,216.684082 197.397461,218.097168 C197.304687,218.039551 197.210937,217.98584 197.118164,217.932129 C199.066406,219.051269 200.905273,220.790527 202.71582,222.130859 C205.030273,223.822754 206.626953,225.209473 208.293945,227.378906 C210.299805,229.98877 213.566406,230.587891 216.014648,232.65625 C218.530273,234.783203 220.995117,236.978027 223.553711,239.056641 C238.037109,250.828125 255.626953,269.270508 264.970703,283.60791 C273.085937,296.058105 277.87793,308.671875 280.664062,320.186035 C284.350586,335.412598 283.788086,349.48291 279.023437,361.876465 C272.305664,386.277832 250.728516,405.647949 228.861328,406.868652 L228.773437,406.878418 L228.685547,406.868652 C216.655273,405.961426 205.11914,404.531738 196.138672,397.161621 L195.94043,397.000488 L195.811523,396.776855 C194.600586,394.349121 192.221679,392.156738 190.241211,390.359863 C188.393554,388.691894 185.324219,386.587402 182.77832,386.424316 C181.129883,386.317871 179.40332,386.623535 177.889648,387.288574 C176.173828,388.04541 176.269531,388.449707 175.708984,390.108887 C175.396484,391.033691 174.910156,391.29248 173.992187,391.650879 C173.178711,391.968262 172.305664,391.991699 171.489258,392.228027 C170.157715,392.620605 168.982422,393.546387 167.825683,394.271973 C166.347168,395.192871 164.938965,396.23584 163.458496,397.157715 C160.602051,398.935059 157.632812,400.550293 154.518066,401.833496 C148.371093,404.35791 141.724121,405.373535 135.15039,404.152832 C135.010742,404.135254 134.872558,404.105957 134.735351,404.078613 C125.746093,402.990723 119.374023,400.737793 114.151367,396.824707 C105.419922,391.16748 97.9682614,380.352051 93.7099606,367.172363 L93.6176754,366.883301 L93.6523434,366.582519 C93.665527,366.469238 93.6762692,366.352051 93.677734,366.240722 C93.6870113,365.396972 93.3398434,364.638183 92.9453121,363.782715 C92.9453121,363.782715 92.3291012,362.288574 92.302734,362.1958 C91.2270504,357.963379 90.7343746,353.36084 90.7910152,348.67041 C90.9008785,339.558593 93.0795894,330.10205 97.0825191,322.340332 L100.093261,316.33789 C101.964843,312.534179 103.898925,308.607422 106.045898,305.005371 C111.52246,295.758789 117.319824,286.936523 122.504882,277.578125 L124.382812,274.188476 L124.452148,274.100586 C125.308593,273.018066 125.957031,271.802734 126.647949,270.520996 C127.105468,269.662598 127.569335,268.808105 128.089355,267.98291 C128.546875,267.264648 129.185058,266.932617 129.639648,266.342773 C129.913574,265.990234 129.838867,265.710449 130.017578,265.395508 C130.184082,265.098144 130.4375,264.874023 130.597168,264.598633 C130.850586,264.17334 130.791992,263.892578 130.981933,263.465332 C131.313476,262.702637 131.696289,262.207519 131.952636,261.432129 C132.396972,260.091797 133.099121,258.978027 134.094726,257.98584 C134.916992,257.167969 135.106933,256.571777 135.572265,255.552734 C136.757324,252.967285 139.026367,250.659668 140.682129,248.353516 C144.071777,243.625976 147.575195,238.974609 151.262695,234.472168 C153.281738,231.394531 155.605957,228.546387 158.066406,225.529785 C159.568847,223.661133 160.998046,221.372558 162.704101,219.695801 C162.623046,219.773437 162.540527,219.855469 162.458496,219.939453 C164.489746,217.854492 166.28955,216.108398 167.591308,213.464355 C168.143066,212.343261 169.214355,210.939941 169.410644,209.703125 C169.464843,209.352539 169.214355,208.533203 169.425781,208.248535 C170.429687,206.875976 172.221679,211.260254 172.359375,211.865234 C173.075195,215.000488 173.203125,216.654785 172.95996,219.251465 C172.920898,220.030273 172.883789,220.803711 172.844726,221.580566 C172.831054,221.889648 172.885742,222.317871 172.794921,222.613769 C172.618164,223.195312 171.973632,223.543945 171.858398,224.134765 C171.749023,224.716308 172.144531,224.932617 172.050781,225.408203 C171.970703,225.822754 171.68457,226.114258 171.536132,226.49414 C171.293945,227.10498 171.439453,227.308105 171.40625,227.885742 C171.329589,229.208008 170.668945,230.649414 170.190429,231.910644 C169.128906,234.70459 168.038085,236.637695 166.609863,239.259765 C164.208984,243.665039 162.578613,246.201172 158.918456,250.68457 C150.280273,261.271484 142.386718,271.476562 134.713867,282.779297 C126.7583,294.495605 119.716308,306.832519 113.560546,319.583008 C108.138671,329.916015 110.329589,344.352051 115.14746,352.675293 C122.273925,364.627441 129.925781,371.493652 137.824707,373.072754 L140.622558,373.510254 C148.80957,374.828613 156.071289,374.984863 162.844238,369.690918 L163.02832,369.54834 L163.247558,369.477051 C165.448242,368.73291 167.518554,367.711426 169.716308,366.627441 C173.158203,364.922363 176.883789,363.130371 180.505859,361.937012 C184.543945,360.605957 184.097656,361.593262 187.208007,364.115722 C191.515625,367.625488 199.015625,367.816894 204.207031,369.622558 C212.729492,372.587402 220.783203,375.394043 229.70996,372.406738 C245.231445,368.096191 254.18457,350.057129 257.141601,335.927734 C257.791992,333.020996 258.11914,329.891113 258.125976,326.504394 C258.134765,321.754394 257.500976,316.498535 256.239257,310.680664 C250.90039,293.513672 245.08789,279.800781 234.067382,268.5708 L234.001953,268.506347 L233.947265,268.424316 C230.185546,263.308593 225.729492,259.323242 221.012695,255.109375 C220.463867,254.618652 216.517578,251.617676 215.961914,251.118164" id="Shape" sketch:type="MSShapeGroup"></path>
            <path d="M178.401367,250.667481 C178.009766,253.320801 178.171875,256.009277 176.234375,258.444336 C176.232422,258.447754 176.039062,258.685059 176.039062,258.685059 L175.695312,261.50586 C174.688477,269.752442 173.644531,278.289063 173.737305,286.641602 C173.735352,287.009277 173.740234,287.376953 173.749024,287.739746 C173.875,292.348145 174.898438,296.656738 175.889649,300.836426 C176.519531,303.479492 177.169922,306.20752 177.572266,308.95752 L177.602539,309.169922 L177.728516,309.358887 C179.19043,311.59668 179.635742,314.410645 179.713867,317.302246 C179.74707,318.524414 179.650391,319.743652 179.66211,320.961426 C179.669922,321.892578 179.294922,322.999512 179.493164,323.893555 C179.641602,324.554199 180.250977,325.122559 180.524414,325.758789 C181.088867,327.073242 180.321289,328.393067 180.37793,329.717285 C180.407227,330.435059 181.049805,330.712891 181.198242,331.223145 C181.357422,331.764649 180.87793,332.479492 180.782227,333.030762 C180.641602,333.818848 180.652344,334.637695 180.672852,335.43457 C180.745117,338.120606 181.91211,340.599121 183.533203,342.964356 C184.353516,344.162598 185.386719,345.308106 186.119141,346.535645 C186.868164,347.774903 186.522461,349.186035 187.19043,350.424317 C187.897461,351.723145 188.28418,349.765137 188.389649,349.317871 C188.705078,347.944824 188.305664,346.716309 188.213867,345.354981 C188.09375,343.596192 188.776367,341.860352 188.727539,340.073731 C188.696289,338.84961 188.552735,337.634766 188.413086,336.443848 C188.276367,335.259278 188.134766,334.052246 188.100586,332.841309 C188.085938,332.312989 188.098633,331.788574 188.134766,331.255371 C188.700196,329.723145 189.243164,328.022461 189.199219,326.270996 C189.182617,325.71875 189.056641,325.157227 188.905274,324.593262 C189.501953,323.426758 189.6875,322.266602 189.655274,321.135254 C189.642578,320.674805 189.607422,320.221192 189.571289,319.770508 C189.538086,319.34668 189.504883,318.930176 189.493164,318.51709 C189.470703,317.628418 189.546875,316.776856 189.929688,315.976074 L190.017578,315.791504 L190.442383,304.957031 C190.716797,299.250488 191.001953,293.346192 190.84375,287.431641 C190.84375,287.378906 190.836914,287.214356 190.836914,287.214356 C190.310547,283.559082 189.954102,279.915039 189.53125,276.283203 C189.205078,273.433106 187.075196,270.972656 186.518555,268.200196 C186.372071,267.465821 185.583985,267.110352 185.331055,266.440918 C185.043946,265.677246 185.767578,265.056153 185.88086,264.331543 C186.008789,263.513672 185.681641,262.542969 185.523438,261.731934 C185.209961,260.168457 184.750977,258.628418 184.28711,257.091309 C183.833985,255.586426 183.726563,253.936035 183.06836,252.483399 C182.390625,250.98584 181.467774,247.297363 179.441407,246.45166 C178.720703,247.265625 178.878907,248.422363 178.653321,249.353516 C178.544922,249.788574 178.467773,250.228027 178.401367,250.667481" id="Shape" sketch:type="MSShapeGroup"></path>
        </g>
    </g>
</svg>